<svg xmlns="http://www.w3.org/2000/svg" width="980" height="420" viewBox="0 0 980 420">
<title>Archive coverage timeline</title>
<rect width="100%" height="100%" fill="#ffffff"/>
<style>text{font-family:Inter,Arial,sans-serif;fill:#111827}</style>
<text x="20" y="24" font-size="16" font-weight="bold">Archive coverage timeline</text>
<line x1="150.0" y1="53" x2="939.7" y2="53" stroke="#9aa4b2" stroke-width="5" stroke-linecap="round"/>
<circle cx="150.0" cy="53" r="2.6" fill="#2563eb"/>
<circle cx="150.2" cy="53" r="2.6" fill="#2563eb"/>
<circle cx="150.4" cy="53" r="2.6" fill="#2563eb"/>
<circle cx="152.3" cy="53" r="2.6" fill="#2563eb"/>
<circle cx="161.4" cy="53" r="2.6" fill="#2563eb"/>
<circle cx="161.8" cy="53" r="2.6" fill="#2563eb"/>
<circle cx="163.2" cy="53" r="2.6" fill="#2563eb"/>
<circle cx="165.1" cy="53" r="2.6" fill="#2563eb"/>
<circle cx="170.8" cy="53" r="2.6" fill="#2563eb"/>
<circle cx="171.1" cy="53" r="2.6" fill="#2563eb"/>
<circle cx="172.8" cy="53" r="2.6" fill="#2563eb"/>
<circle cx="174.6" cy="53" r="2.6" fill="#2563eb"/>
<circle cx="176.8" cy="53" r="2.6" fill="#2563eb"/>
<circle cx="176.8" cy="53" r="2.6" fill="#2563eb"/>
<circle cx="177.1" cy="53" r="2.6" fill="#2563eb"/>
<circle cx="178.5" cy="53" r="2.6" fill="#2563eb"/>
<circle cx="184.6" cy="53" r="2.6" fill="#2563eb"/>
<circle cx="186.1" cy="53" r="2.6" fill="#2563eb"/>
<circle cx="187.9" cy="53" r="2.6" fill="#2563eb"/>
<circle cx="188.1" cy="53" r="2.6" fill="#2563eb"/>
<circle cx="189.6" cy="53" r="2.6" fill="#2563eb"/>
<circle cx="191.8" cy="53" r="2.6" fill="#2563eb"/>
<circle cx="192.2" cy="53" r="2.6" fill="#2563eb"/>
<circle cx="197.7" cy="53" r="2.6" fill="#2563eb"/>
<circle cx="199.2" cy="53" r="2.6" fill="#2563eb"/>
<circle cx="199.3" cy="53" r="2.6" fill="#2563eb"/>
<circle cx="201.1" cy="53" r="2.6" fill="#2563eb"/>
<circle cx="201.5" cy="53" r="2.6" fill="#2563eb"/>
<circle cx="201.9" cy="53" r="2.6" fill="#2563eb"/>
<circle cx="205.0" cy="53" r="2.6" fill="#2563eb"/>
<circle cx="210.6" cy="53" r="2.6" fill="#2563eb"/>
<circle cx="210.8" cy="53" r="2.6" fill="#2563eb"/>
<circle cx="212.6" cy="53" r="2.6" fill="#2563eb"/>
<circle cx="214.6" cy="53" r="2.6" fill="#2563eb"/>
<circle cx="218.1" cy="53" r="2.6" fill="#2563eb"/>
<circle cx="218.6" cy="53" r="2.6" fill="#2563eb"/>
<circle cx="224.0" cy="53" r="2.6" fill="#2563eb"/>
<circle cx="225.7" cy="53" r="2.6" fill="#2563eb"/>
<circle cx="226.1" cy="53" r="2.6" fill="#2563eb"/>
<circle cx="227.6" cy="53" r="2.6" fill="#2563eb"/>
<circle cx="229.5" cy="53" r="2.6" fill="#2563eb"/>
<circle cx="229.5" cy="53" r="2.6" fill="#2563eb"/>
<circle cx="237.3" cy="53" r="2.6" fill="#2563eb"/>
<circle cx="239.2" cy="53" r="2.6" fill="#2563eb"/>
<circle cx="240.9" cy="53" r="2.6" fill="#2563eb"/>
<circle cx="241.1" cy="53" r="2.6" fill="#2563eb"/>
<circle cx="241.4" cy="53" r="2.6" fill="#2563eb"/>
<circle cx="244.7" cy="53" r="2.6" fill="#2563eb"/>
<circle cx="244.9" cy="53" r="2.6" fill="#2563eb"/>
<circle cx="245.0" cy="53" r="2.6" fill="#2563eb"/>
<circle cx="251.2" cy="53" r="2.6" fill="#2563eb"/>
<circle cx="252.6" cy="53" r="2.6" fill="#2563eb"/>
<circle cx="254.5" cy="53" r="2.6" fill="#2563eb"/>
<circle cx="256.1" cy="53" r="2.6" fill="#2563eb"/>
<circle cx="258.3" cy="53" r="2.6" fill="#2563eb"/>
<circle cx="263.8" cy="53" r="2.6" fill="#2563eb"/>
<circle cx="265.8" cy="53" r="2.6" fill="#2563eb"/>
<circle cx="267.6" cy="53" r="2.6" fill="#2563eb"/>
<circle cx="269.5" cy="53" r="2.6" fill="#2563eb"/>
<circle cx="271.4" cy="53" r="2.6" fill="#2563eb"/>
<circle cx="277.1" cy="53" r="2.6" fill="#2563eb"/>
<circle cx="279.0" cy="53" r="2.6" fill="#2563eb"/>
<circle cx="280.9" cy="53" r="2.6" fill="#2563eb"/>
<circle cx="282.8" cy="53" r="2.6" fill="#2563eb"/>
<circle cx="284.7" cy="53" r="2.6" fill="#2563eb"/>
<circle cx="284.7" cy="53" r="2.6" fill="#2563eb"/>
<circle cx="290.3" cy="53" r="2.6" fill="#2563eb"/>
<circle cx="291.8" cy="53" r="2.6" fill="#2563eb"/>
<circle cx="293.9" cy="53" r="2.6" fill="#2563eb"/>
<circle cx="296.0" cy="53" r="2.6" fill="#2563eb"/>
<circle cx="297.6" cy="53" r="2.6" fill="#2563eb"/>
<circle cx="303.6" cy="53" r="2.6" fill="#2563eb"/>
<circle cx="305.0" cy="53" r="2.6" fill="#2563eb"/>
<circle cx="305.2" cy="53" r="2.6" fill="#2563eb"/>
<circle cx="305.3" cy="53" r="2.6" fill="#2563eb"/>
<circle cx="307.1" cy="53" r="2.6" fill="#2563eb"/>
<circle cx="307.2" cy="53" r="2.6" fill="#2563eb"/>
<circle cx="307.3" cy="53" r="2.6" fill="#2563eb"/>
<circle cx="308.9" cy="53" r="2.6" fill="#2563eb"/>
<circle cx="311.1" cy="53" r="2.6" fill="#2563eb"/>
<circle cx="311.3" cy="53" r="2.6" fill="#2563eb"/>
<circle cx="316.9" cy="53" r="2.6" fill="#2563eb"/>
<circle cx="318.7" cy="53" r="2.6" fill="#2563eb"/>
<circle cx="320.6" cy="53" r="2.6" fill="#2563eb"/>
<circle cx="322.5" cy="53" r="2.6" fill="#2563eb"/>
<circle cx="322.7" cy="53" r="2.6" fill="#2563eb"/>
<circle cx="324.4" cy="53" r="2.6" fill="#2563eb"/>
<circle cx="328.2" cy="53" r="2.6" fill="#2563eb"/>
<circle cx="330.0" cy="53" r="2.6" fill="#2563eb"/>
<circle cx="330.1" cy="53" r="2.6" fill="#2563eb"/>
<circle cx="332.0" cy="53" r="2.6" fill="#2563eb"/>
<circle cx="333.7" cy="53" r="2.6" fill="#2563eb"/>
<circle cx="334.1" cy="53" r="2.6" fill="#2563eb"/>
<circle cx="335.2" cy="53" r="2.6" fill="#2563eb"/>
<circle cx="337.6" cy="53" r="2.6" fill="#2563eb"/>
<circle cx="343.4" cy="53" r="2.6" fill="#2563eb"/>
<circle cx="345.3" cy="53" r="2.6" fill="#2563eb"/>
<circle cx="347.2" cy="53" r="2.6" fill="#2563eb"/>
<circle cx="348.5" cy="53" r="2.6" fill="#2563eb"/>
<circle cx="349.1" cy="53" r="2.6" fill="#2563eb"/>
<circle cx="349.4" cy="53" r="2.6" fill="#2563eb"/>
<circle cx="350.9" cy="53" r="2.6" fill="#2563eb"/>
<circle cx="356.6" cy="53" r="2.6" fill="#2563eb"/>
<circle cx="358.5" cy="53" r="2.6" fill="#2563eb"/>
<circle cx="360.4" cy="53" r="2.6" fill="#2563eb"/>
<circle cx="362.4" cy="53" r="2.6" fill="#2563eb"/>
<circle cx="364.5" cy="53" r="2.6" fill="#2563eb"/>
<circle cx="369.7" cy="53" r="2.6" fill="#2563eb"/>
<circle cx="370.0" cy="53" r="2.6" fill="#2563eb"/>
<circle cx="371.7" cy="53" r="2.6" fill="#2563eb"/>
<circle cx="371.8" cy="53" r="2.6" fill="#2563eb"/>
<circle cx="373.7" cy="53" r="2.6" fill="#2563eb"/>
<circle cx="375.4" cy="53" r="2.6" fill="#2563eb"/>
<circle cx="377.3" cy="53" r="2.6" fill="#2563eb"/>
<circle cx="384.6" cy="53" r="2.6" fill="#2563eb"/>
<circle cx="384.8" cy="53" r="2.6" fill="#2563eb"/>
<circle cx="387.1" cy="53" r="2.6" fill="#2563eb"/>
<circle cx="388.8" cy="53" r="2.6" fill="#2563eb"/>
<circle cx="389.0" cy="53" r="2.6" fill="#2563eb"/>
<circle cx="390.2" cy="53" r="2.6" fill="#2563eb"/>
<circle cx="392.0" cy="53" r="2.6" fill="#2563eb"/>
<circle cx="395.7" cy="53" r="2.6" fill="#2563eb"/>
<circle cx="396.6" cy="53" r="2.6" fill="#2563eb"/>
<circle cx="398.3" cy="53" r="2.6" fill="#2563eb"/>
<circle cx="400.3" cy="53" r="2.6" fill="#2563eb"/>
<circle cx="401.5" cy="53" r="2.6" fill="#2563eb"/>
<circle cx="405.6" cy="53" r="2.6" fill="#2563eb"/>
<circle cx="409.5" cy="53" r="2.6" fill="#2563eb"/>
<circle cx="411.2" cy="53" r="2.6" fill="#2563eb"/>
<circle cx="413.2" cy="53" r="2.6" fill="#2563eb"/>
<circle cx="414.7" cy="53" r="2.6" fill="#2563eb"/>
<circle cx="414.8" cy="53" r="2.6" fill="#2563eb"/>
<circle cx="417.0" cy="53" r="2.6" fill="#2563eb"/>
<circle cx="424.3" cy="53" r="2.6" fill="#2563eb"/>
<circle cx="426.1" cy="53" r="2.6" fill="#2563eb"/>
<circle cx="426.4" cy="53" r="2.6" fill="#2563eb"/>
<circle cx="426.5" cy="53" r="2.6" fill="#2563eb"/>
<circle cx="428.0" cy="53" r="2.6" fill="#2563eb"/>
<circle cx="428.6" cy="53" r="2.6" fill="#2563eb"/>
<circle cx="430.3" cy="53" r="2.6" fill="#2563eb"/>
<circle cx="434.7" cy="53" r="2.6" fill="#2563eb"/>
<circle cx="435.7" cy="53" r="2.6" fill="#2563eb"/>
<circle cx="437.8" cy="53" r="2.6" fill="#2563eb"/>
<circle cx="441.7" cy="53" r="2.6" fill="#2563eb"/>
<circle cx="443.4" cy="53" r="2.6" fill="#2563eb"/>
<circle cx="449.1" cy="53" r="2.6" fill="#2563eb"/>
<circle cx="453.1" cy="53" r="2.6" fill="#2563eb"/>
<circle cx="454.9" cy="53" r="2.6" fill="#2563eb"/>
<circle cx="456.8" cy="53" r="2.6" fill="#2563eb"/>
<circle cx="462.6" cy="53" r="2.6" fill="#2563eb"/>
<circle cx="464.4" cy="53" r="2.6" fill="#2563eb"/>
<circle cx="466.2" cy="53" r="2.6" fill="#2563eb"/>
<circle cx="468.0" cy="53" r="2.6" fill="#2563eb"/>
<circle cx="470.0" cy="53" r="2.6" fill="#2563eb"/>
<circle cx="475.7" cy="53" r="2.6" fill="#2563eb"/>
<circle cx="481.7" cy="53" r="2.6" fill="#2563eb"/>
<circle cx="483.4" cy="53" r="2.6" fill="#2563eb"/>
<circle cx="489.0" cy="53" r="2.6" fill="#2563eb"/>
<circle cx="489.5" cy="53" r="2.6" fill="#2563eb"/>
<circle cx="490.4" cy="53" r="2.6" fill="#2563eb"/>
<circle cx="491.4" cy="53" r="2.6" fill="#2563eb"/>
<circle cx="492.8" cy="53" r="2.6" fill="#2563eb"/>
<circle cx="494.8" cy="53" r="2.6" fill="#2563eb"/>
<circle cx="496.2" cy="53" r="2.6" fill="#2563eb"/>
<circle cx="501.9" cy="53" r="2.6" fill="#2563eb"/>
<circle cx="502.3" cy="53" r="2.6" fill="#2563eb"/>
<circle cx="502.5" cy="53" r="2.6" fill="#2563eb"/>
<circle cx="504.2" cy="53" r="2.6" fill="#2563eb"/>
<circle cx="506.1" cy="53" r="2.6" fill="#2563eb"/>
<circle cx="515.6" cy="53" r="2.6" fill="#2563eb"/>
<circle cx="517.9" cy="53" r="2.6" fill="#2563eb"/>
<circle cx="519.0" cy="53" r="2.6" fill="#2563eb"/>
<circle cx="521.1" cy="53" r="2.6" fill="#2563eb"/>
<circle cx="523.0" cy="53" r="2.6" fill="#2563eb"/>
<circle cx="525.8" cy="53" r="2.6" fill="#2563eb"/>
<circle cx="528.9" cy="53" r="2.6" fill="#2563eb"/>
<circle cx="530.4" cy="53" r="2.6" fill="#2563eb"/>
<circle cx="530.8" cy="53" r="2.6" fill="#2563eb"/>
<circle cx="532.8" cy="53" r="2.6" fill="#2563eb"/>
<circle cx="534.1" cy="53" r="2.6" fill="#2563eb"/>
<circle cx="534.5" cy="53" r="2.6" fill="#2563eb"/>
<circle cx="536.3" cy="53" r="2.6" fill="#2563eb"/>
<circle cx="536.4" cy="53" r="2.6" fill="#2563eb"/>
<circle cx="542.0" cy="53" r="2.6" fill="#2563eb"/>
<circle cx="543.8" cy="53" r="2.6" fill="#2563eb"/>
<circle cx="545.7" cy="53" r="2.6" fill="#2563eb"/>
<circle cx="547.7" cy="53" r="2.6" fill="#2563eb"/>
<circle cx="549.4" cy="53" r="2.6" fill="#2563eb"/>
<circle cx="551.0" cy="53" r="2.6" fill="#2563eb"/>
<circle cx="555.3" cy="53" r="2.6" fill="#2563eb"/>
<circle cx="581.8" cy="53" r="2.6" fill="#2563eb"/>
<circle cx="583.9" cy="53" r="2.6" fill="#2563eb"/>
<circle cx="585.4" cy="53" r="2.6" fill="#2563eb"/>
<circle cx="587.3" cy="53" r="2.6" fill="#2563eb"/>
<circle cx="589.1" cy="53" r="2.6" fill="#2563eb"/>
<circle cx="591.1" cy="53" r="2.6" fill="#2563eb"/>
<circle cx="593.0" cy="53" r="2.6" fill="#2563eb"/>
<circle cx="595.2" cy="53" r="2.6" fill="#2563eb"/>
<circle cx="596.8" cy="53" r="2.6" fill="#2563eb"/>
<circle cx="598.9" cy="53" r="2.6" fill="#2563eb"/>
<circle cx="600.7" cy="53" r="2.6" fill="#2563eb"/>
<circle cx="602.6" cy="53" r="2.6" fill="#2563eb"/>
<circle cx="602.7" cy="53" r="2.6" fill="#2563eb"/>
<circle cx="603.8" cy="53" r="2.6" fill="#2563eb"/>
<circle cx="610.1" cy="53" r="2.6" fill="#2563eb"/>
<circle cx="611.9" cy="53" r="2.6" fill="#2563eb"/>
<circle cx="613.6" cy="53" r="2.6" fill="#2563eb"/>
<circle cx="613.7" cy="53" r="2.6" fill="#2563eb"/>
<circle cx="613.9" cy="53" r="2.6" fill="#2563eb"/>
<circle cx="615.6" cy="53" r="2.6" fill="#2563eb"/>
<circle cx="621.6" cy="53" r="2.6" fill="#2563eb"/>
<circle cx="623.5" cy="53" r="2.6" fill="#2563eb"/>
<circle cx="623.9" cy="53" r="2.6" fill="#2563eb"/>
<circle cx="625.3" cy="53" r="2.6" fill="#2563eb"/>
<circle cx="626.9" cy="53" r="2.6" fill="#2563eb"/>
<circle cx="627.4" cy="53" r="2.6" fill="#2563eb"/>
<circle cx="628.8" cy="53" r="2.6" fill="#2563eb"/>
<circle cx="630.6" cy="53" r="2.6" fill="#2563eb"/>
<circle cx="630.7" cy="53" r="2.6" fill="#2563eb"/>
<circle cx="636.1" cy="53" r="2.6" fill="#2563eb"/>
<circle cx="636.7" cy="53" r="2.6" fill="#2563eb"/>
<circle cx="639.9" cy="53" r="2.6" fill="#2563eb"/>
<circle cx="640.5" cy="53" r="2.6" fill="#2563eb"/>
<circle cx="641.0" cy="53" r="2.6" fill="#2563eb"/>
<circle cx="643.7" cy="53" r="2.6" fill="#2563eb"/>
<circle cx="643.8" cy="53" r="2.6" fill="#2563eb"/>
<circle cx="648.0" cy="53" r="2.6" fill="#2563eb"/>
<circle cx="649.7" cy="53" r="2.6" fill="#2563eb"/>
<circle cx="651.9" cy="53" r="2.6" fill="#2563eb"/>
<circle cx="653.8" cy="53" r="2.6" fill="#2563eb"/>
<circle cx="655.2" cy="53" r="2.6" fill="#2563eb"/>
<circle cx="661.0" cy="53" r="2.6" fill="#2563eb"/>
<circle cx="662.6" cy="53" r="2.6" fill="#2563eb"/>
<circle cx="664.7" cy="53" r="2.6" fill="#2563eb"/>
<circle cx="666.7" cy="53" r="2.6" fill="#2563eb"/>
<circle cx="666.8" cy="53" r="2.6" fill="#2563eb"/>
<circle cx="668.7" cy="53" r="2.6" fill="#2563eb"/>
<circle cx="674.5" cy="53" r="2.6" fill="#2563eb"/>
<circle cx="675.0" cy="53" r="2.6" fill="#2563eb"/>
<circle cx="676.3" cy="53" r="2.6" fill="#2563eb"/>
<circle cx="676.5" cy="53" r="2.6" fill="#2563eb"/>
<circle cx="676.6" cy="53" r="2.6" fill="#2563eb"/>
<circle cx="676.8" cy="53" r="2.6" fill="#2563eb"/>
<circle cx="677.9" cy="53" r="2.6" fill="#2563eb"/>
<circle cx="678.2" cy="53" r="2.6" fill="#2563eb"/>
<circle cx="680.0" cy="53" r="2.6" fill="#2563eb"/>
<circle cx="680.3" cy="53" r="2.6" fill="#2563eb"/>
<circle cx="682.3" cy="53" r="2.6" fill="#2563eb"/>
<circle cx="688.0" cy="53" r="2.6" fill="#2563eb"/>
<circle cx="689.6" cy="53" r="2.6" fill="#2563eb"/>
<circle cx="690.0" cy="53" r="2.6" fill="#2563eb"/>
<circle cx="690.3" cy="53" r="2.6" fill="#2563eb"/>
<circle cx="691.3" cy="53" r="2.6" fill="#2563eb"/>
<circle cx="693.4" cy="53" r="2.6" fill="#2563eb"/>
<circle cx="695.2" cy="53" r="2.6" fill="#2563eb"/>
<circle cx="700.9" cy="53" r="2.6" fill="#2563eb"/>
<circle cx="704.2" cy="53" r="2.6" fill="#2563eb"/>
<circle cx="704.7" cy="53" r="2.6" fill="#2563eb"/>
<circle cx="707.9" cy="53" r="2.6" fill="#2563eb"/>
<circle cx="708.5" cy="53" r="2.6" fill="#2563eb"/>
<circle cx="714.1" cy="53" r="2.6" fill="#2563eb"/>
<circle cx="715.9" cy="53" r="2.6" fill="#2563eb"/>
<circle cx="717.8" cy="53" r="2.6" fill="#2563eb"/>
<circle cx="719.6" cy="53" r="2.6" fill="#2563eb"/>
<circle cx="721.6" cy="53" r="2.6" fill="#2563eb"/>
<circle cx="729.2" cy="53" r="2.6" fill="#2563eb"/>
<circle cx="731.2" cy="53" r="2.6" fill="#2563eb"/>
<circle cx="732.9" cy="53" r="2.6" fill="#2563eb"/>
<circle cx="734.7" cy="53" r="2.6" fill="#2563eb"/>
<circle cx="737.0" cy="53" r="2.6" fill="#2563eb"/>
<circle cx="742.5" cy="53" r="2.6" fill="#2563eb"/>
<circle cx="744.4" cy="53" r="2.6" fill="#2563eb"/>
<circle cx="746.2" cy="53" r="2.6" fill="#2563eb"/>
<circle cx="748.3" cy="53" r="2.6" fill="#2563eb"/>
<circle cx="755.6" cy="53" r="2.6" fill="#2563eb"/>
<circle cx="756.2" cy="53" r="2.6" fill="#2563eb"/>
<circle cx="757.5" cy="53" r="2.6" fill="#2563eb"/>
<circle cx="759.1" cy="53" r="2.6" fill="#2563eb"/>
<circle cx="760.0" cy="53" r="2.6" fill="#2563eb"/>
<circle cx="761.1" cy="53" r="2.6" fill="#2563eb"/>
<circle cx="763.6" cy="53" r="2.6" fill="#2563eb"/>
<circle cx="766.8" cy="53" r="2.6" fill="#2563eb"/>
<circle cx="767.6" cy="53" r="2.6" fill="#2563eb"/>
<circle cx="768.6" cy="53" r="2.6" fill="#2563eb"/>
<circle cx="769.3" cy="53" r="2.6" fill="#2563eb"/>
<circle cx="770.7" cy="53" r="2.6" fill="#2563eb"/>
<circle cx="772.1" cy="53" r="2.6" fill="#2563eb"/>
<circle cx="772.5" cy="53" r="2.6" fill="#2563eb"/>
<circle cx="774.3" cy="53" r="2.6" fill="#2563eb"/>
<circle cx="774.7" cy="53" r="2.6" fill="#2563eb"/>
<circle cx="780.0" cy="53" r="2.6" fill="#2563eb"/>
<circle cx="782.1" cy="53" r="2.6" fill="#2563eb"/>
<circle cx="784.2" cy="53" r="2.6" fill="#2563eb"/>
<circle cx="785.9" cy="53" r="2.6" fill="#2563eb"/>
<circle cx="787.9" cy="53" r="2.6" fill="#2563eb"/>
<circle cx="793.3" cy="53" r="2.6" fill="#2563eb"/>
<circle cx="795.0" cy="53" r="2.6" fill="#2563eb"/>
<circle cx="795.7" cy="53" r="2.6" fill="#2563eb"/>
<circle cx="797.6" cy="53" r="2.6" fill="#2563eb"/>
<circle cx="799.0" cy="53" r="2.6" fill="#2563eb"/>
<circle cx="806.5" cy="53" r="2.6" fill="#2563eb"/>
<circle cx="808.3" cy="53" r="2.6" fill="#2563eb"/>
<circle cx="809.4" cy="53" r="2.6" fill="#2563eb"/>
<circle cx="810.3" cy="53" r="2.6" fill="#2563eb"/>
<circle cx="812.3" cy="53" r="2.6" fill="#2563eb"/>
<circle cx="813.9" cy="53" r="2.6" fill="#2563eb"/>
<circle cx="814.5" cy="53" r="2.6" fill="#2563eb"/>
<circle cx="814.9" cy="53" r="2.6" fill="#2563eb"/>
<circle cx="819.7" cy="53" r="2.6" fill="#2563eb"/>
<circle cx="821.7" cy="53" r="2.6" fill="#2563eb"/>
<circle cx="823.8" cy="53" r="2.6" fill="#2563eb"/>
<circle cx="825.5" cy="53" r="2.6" fill="#2563eb"/>
<circle cx="827.3" cy="53" r="2.6" fill="#2563eb"/>
<circle cx="833.0" cy="53" r="2.6" fill="#2563eb"/>
<circle cx="834.8" cy="53" r="2.6" fill="#2563eb"/>
<circle cx="836.8" cy="53" r="2.6" fill="#2563eb"/>
<circle cx="838.5" cy="53" r="2.6" fill="#2563eb"/>
<circle cx="839.0" cy="53" r="2.6" fill="#2563eb"/>
<circle cx="840.5" cy="53" r="2.6" fill="#2563eb"/>
<circle cx="841.1" cy="53" r="2.6" fill="#2563eb"/>
<circle cx="848.3" cy="53" r="2.6" fill="#2563eb"/>
<circle cx="850.2" cy="53" r="2.6" fill="#2563eb"/>
<circle cx="851.6" cy="53" r="2.6" fill="#2563eb"/>
<circle cx="852.0" cy="53" r="2.6" fill="#2563eb"/>
<circle cx="853.7" cy="53" r="2.6" fill="#2563eb"/>
<circle cx="854.3" cy="53" r="2.6" fill="#2563eb"/>
<circle cx="857.5" cy="53" r="2.6" fill="#2563eb"/>
<circle cx="859.5" cy="53" r="2.6" fill="#2563eb"/>
<circle cx="861.2" cy="53" r="2.6" fill="#2563eb"/>
<circle cx="863.2" cy="53" r="2.6" fill="#2563eb"/>
<circle cx="865.0" cy="53" r="2.6" fill="#2563eb"/>
<circle cx="865.9" cy="53" r="2.6" fill="#2563eb"/>
<circle cx="867.5" cy="53" r="2.6" fill="#2563eb"/>
<circle cx="869.3" cy="53" r="2.6" fill="#2563eb"/>
<circle cx="872.6" cy="53" r="2.6" fill="#2563eb"/>
<circle cx="874.4" cy="53" r="2.6" fill="#2563eb"/>
<circle cx="876.4" cy="53" r="2.6" fill="#2563eb"/>
<circle cx="877.0" cy="53" r="2.6" fill="#2563eb"/>
<circle cx="878.9" cy="53" r="2.6" fill="#2563eb"/>
<circle cx="880.3" cy="53" r="2.6" fill="#2563eb"/>
<circle cx="880.7" cy="53" r="2.6" fill="#2563eb"/>
<circle cx="885.9" cy="53" r="2.6" fill="#2563eb"/>
<circle cx="887.7" cy="53" r="2.6" fill="#2563eb"/>
<circle cx="889.7" cy="53" r="2.6" fill="#2563eb"/>
<circle cx="892.0" cy="53" r="2.6" fill="#2563eb"/>
<circle cx="895.2" cy="53" r="2.6" fill="#2563eb"/>
<circle cx="899.1" cy="53" r="2.6" fill="#2563eb"/>
<circle cx="901.0" cy="53" r="2.6" fill="#2563eb"/>
<circle cx="902.6" cy="53" r="2.6" fill="#2563eb"/>
<circle cx="902.9" cy="53" r="2.6" fill="#2563eb"/>
<circle cx="904.8" cy="53" r="2.6" fill="#2563eb"/>
<circle cx="906.7" cy="53" r="2.6" fill="#2563eb"/>
<circle cx="912.5" cy="53" r="2.6" fill="#2563eb"/>
<circle cx="913.9" cy="53" r="2.6" fill="#2563eb"/>
<circle cx="916.0" cy="53" r="2.6" fill="#2563eb"/>
<circle cx="918.0" cy="53" r="2.6" fill="#2563eb"/>
<circle cx="918.8" cy="53" r="2.6" fill="#2563eb"/>
<circle cx="920.1" cy="53" r="2.6" fill="#2563eb"/>
<circle cx="925.8" cy="53" r="2.6" fill="#2563eb"/>
<circle cx="927.4" cy="53" r="2.6" fill="#2563eb"/>
<circle cx="927.9" cy="53" r="2.6" fill="#2563eb"/>
<circle cx="929.5" cy="53" r="2.6" fill="#2563eb"/>
<circle cx="931.2" cy="53" r="2.6" fill="#2563eb"/>
<circle cx="933.5" cy="53" r="2.6" fill="#2563eb"/>
<circle cx="939.1" cy="53" r="2.6" fill="#2563eb"/>
<circle cx="939.7" cy="53" r="2.6" fill="#2563eb"/>
<text x="12" y="57" font-size="12" font-weight="normal">claude-code (366)</text>
<line x1="589.0" y1="81" x2="939.7" y2="81" stroke="#9aa4b2" stroke-width="5" stroke-linecap="round"/>
<circle cx="589.0" cy="81" r="2.6" fill="#2563eb"/>
<circle cx="598.4" cy="81" r="2.6" fill="#2563eb"/>
<circle cx="598.9" cy="81" r="2.6" fill="#2563eb"/>
<circle cx="600.3" cy="81" r="2.6" fill="#2563eb"/>
<circle cx="600.8" cy="81" r="2.6" fill="#2563eb"/>
<circle cx="601.9" cy="81" r="2.6" fill="#2563eb"/>
<circle cx="611.7" cy="81" r="2.6" fill="#2563eb"/>
<circle cx="613.8" cy="81" r="2.6" fill="#2563eb"/>
<circle cx="619.1" cy="81" r="2.6" fill="#2563eb"/>
<circle cx="619.1" cy="81" r="2.6" fill="#2563eb"/>
<circle cx="622.5" cy="81" r="2.6" fill="#2563eb"/>
<circle cx="629.6" cy="81" r="2.6" fill="#2563eb"/>
<circle cx="634.3" cy="81" r="2.6" fill="#2563eb"/>
<circle cx="637.0" cy="81" r="2.6" fill="#2563eb"/>
<circle cx="638.1" cy="81" r="2.6" fill="#2563eb"/>
<circle cx="639.0" cy="81" r="2.6" fill="#2563eb"/>
<circle cx="639.9" cy="81" r="2.6" fill="#2563eb"/>
<circle cx="651.5" cy="81" r="2.6" fill="#2563eb"/>
<circle cx="653.2" cy="81" r="2.6" fill="#2563eb"/>
<circle cx="653.4" cy="81" r="2.6" fill="#2563eb"/>
<circle cx="662.8" cy="81" r="2.6" fill="#2563eb"/>
<circle cx="663.1" cy="81" r="2.6" fill="#2563eb"/>
<circle cx="663.7" cy="81" r="2.6" fill="#2563eb"/>
<circle cx="677.7" cy="81" r="2.6" fill="#2563eb"/>
<circle cx="680.1" cy="81" r="2.6" fill="#2563eb"/>
<circle cx="687.3" cy="81" r="2.6" fill="#2563eb"/>
<circle cx="691.7" cy="81" r="2.6" fill="#2563eb"/>
<circle cx="693.0" cy="81" r="2.6" fill="#2563eb"/>
<circle cx="698.8" cy="81" r="2.6" fill="#2563eb"/>
<circle cx="701.4" cy="81" r="2.6" fill="#2563eb"/>
<circle cx="702.9" cy="81" r="2.6" fill="#2563eb"/>
<circle cx="713.9" cy="81" r="2.6" fill="#2563eb"/>
<circle cx="719.4" cy="81" r="2.6" fill="#2563eb"/>
<circle cx="733.0" cy="81" r="2.6" fill="#2563eb"/>
<circle cx="742.0" cy="81" r="2.6" fill="#2563eb"/>
<circle cx="761.4" cy="81" r="2.6" fill="#2563eb"/>
<circle cx="761.7" cy="81" r="2.6" fill="#2563eb"/>
<circle cx="770.7" cy="81" r="2.6" fill="#2563eb"/>
<circle cx="780.0" cy="81" r="2.6" fill="#2563eb"/>
<circle cx="784.3" cy="81" r="2.6" fill="#2563eb"/>
<circle cx="785.6" cy="81" r="2.6" fill="#2563eb"/>
<circle cx="787.5" cy="81" r="2.6" fill="#2563eb"/>
<circle cx="798.7" cy="81" r="2.6" fill="#2563eb"/>
<circle cx="812.0" cy="81" r="2.6" fill="#2563eb"/>
<circle cx="814.4" cy="81" r="2.6" fill="#2563eb"/>
<circle cx="832.9" cy="81" r="2.6" fill="#2563eb"/>
<circle cx="835.5" cy="81" r="2.6" fill="#2563eb"/>
<circle cx="838.5" cy="81" r="2.6" fill="#2563eb"/>
<circle cx="848.1" cy="81" r="2.6" fill="#2563eb"/>
<circle cx="851.9" cy="81" r="2.6" fill="#2563eb"/>
<circle cx="859.4" cy="81" r="2.6" fill="#2563eb"/>
<circle cx="863.8" cy="81" r="2.6" fill="#2563eb"/>
<circle cx="873.0" cy="81" r="2.6" fill="#2563eb"/>
<circle cx="874.7" cy="81" r="2.6" fill="#2563eb"/>
<circle cx="886.1" cy="81" r="2.6" fill="#2563eb"/>
<circle cx="890.5" cy="81" r="2.6" fill="#2563eb"/>
<circle cx="899.4" cy="81" r="2.6" fill="#2563eb"/>
<circle cx="903.4" cy="81" r="2.6" fill="#2563eb"/>
<circle cx="903.9" cy="81" r="2.6" fill="#2563eb"/>
<circle cx="906.9" cy="81" r="2.6" fill="#2563eb"/>
<circle cx="911.3" cy="81" r="2.6" fill="#2563eb"/>
<circle cx="914.8" cy="81" r="2.6" fill="#2563eb"/>
<circle cx="928.1" cy="81" r="2.6" fill="#2563eb"/>
<circle cx="931.2" cy="81" r="2.6" fill="#2563eb"/>
<circle cx="931.6" cy="81" r="2.6" fill="#2563eb"/>
<circle cx="937.8" cy="81" r="2.6" fill="#2563eb"/>
<circle cx="937.9" cy="81" r="2.6" fill="#2563eb"/>
<circle cx="939.7" cy="81" r="2.6" fill="#2563eb"/>
<text x="12" y="85" font-size="12" font-weight="normal">codex (68)</text>
<line x1="859.8" y1="109" x2="939.2" y2="109" stroke="#9aa4b2" stroke-width="5" stroke-linecap="round"/>
<circle cx="859.8" cy="109" r="2.6" fill="#2563eb"/>
<circle cx="863.4" cy="109" r="2.6" fill="#2563eb"/>
<circle cx="867.5" cy="109" r="2.6" fill="#2563eb"/>
<circle cx="874.7" cy="109" r="2.6" fill="#2563eb"/>
<circle cx="880.6" cy="109" r="2.6" fill="#2563eb"/>
<circle cx="888.4" cy="109" r="2.6" fill="#2563eb"/>
<circle cx="892.4" cy="109" r="2.6" fill="#2563eb"/>
<circle cx="901.9" cy="109" r="2.6" fill="#2563eb"/>
<circle cx="903.3" cy="109" r="2.6" fill="#2563eb"/>
<circle cx="907.3" cy="109" r="2.6" fill="#2563eb"/>
<circle cx="913.0" cy="109" r="2.6" fill="#2563eb"/>
<circle cx="916.5" cy="109" r="2.6" fill="#2563eb"/>
<circle cx="918.1" cy="109" r="2.6" fill="#2563eb"/>
<circle cx="928.2" cy="109" r="2.6" fill="#2563eb"/>
<circle cx="932.0" cy="109" r="2.6" fill="#2563eb"/>
<circle cx="939.2" cy="109" r="2.6" fill="#2563eb"/>
<text x="12" y="113" font-size="12" font-weight="normal">antigravity (16)</text>
<line x1="839.7" y1="137" x2="940.0" y2="137" stroke="#9aa4b2" stroke-width="5" stroke-linecap="round"/>
<circle cx="839.7" cy="137" r="2.6" fill="#2563eb"/>
<circle cx="847.2" cy="137" r="2.6" fill="#2563eb"/>
<circle cx="847.7" cy="137" r="2.6" fill="#2563eb"/>
<circle cx="849.7" cy="137" r="2.6" fill="#2563eb"/>
<circle cx="851.5" cy="137" r="2.6" fill="#2563eb"/>
<circle cx="853.4" cy="137" r="2.6" fill="#2563eb"/>
<circle cx="860.0" cy="137" r="2.6" fill="#2563eb"/>
<circle cx="861.0" cy="137" r="2.6" fill="#2563eb"/>
<circle cx="862.8" cy="137" r="2.6" fill="#2563eb"/>
<circle cx="864.7" cy="137" r="2.6" fill="#2563eb"/>
<circle cx="865.0" cy="137" r="2.6" fill="#2563eb"/>
<circle cx="866.3" cy="137" r="2.6" fill="#2563eb"/>
<circle cx="873.4" cy="137" r="2.6" fill="#2563eb"/>
<circle cx="873.8" cy="137" r="2.6" fill="#2563eb"/>
<circle cx="875.2" cy="137" r="2.6" fill="#2563eb"/>
<circle cx="875.5" cy="137" r="2.6" fill="#2563eb"/>
<circle cx="875.8" cy="137" r="2.6" fill="#2563eb"/>
<circle cx="879.0" cy="137" r="2.6" fill="#2563eb"/>
<circle cx="879.5" cy="137" r="2.6" fill="#2563eb"/>
<circle cx="882.6" cy="137" r="2.6" fill="#2563eb"/>
<circle cx="885.6" cy="137" r="2.6" fill="#2563eb"/>
<circle cx="887.4" cy="137" r="2.6" fill="#2563eb"/>
<circle cx="889.3" cy="137" r="2.6" fill="#2563eb"/>
<circle cx="889.5" cy="137" r="2.6" fill="#2563eb"/>
<circle cx="891.1" cy="137" r="2.6" fill="#2563eb"/>
<circle cx="898.7" cy="137" r="2.6" fill="#2563eb"/>
<circle cx="899.8" cy="137" r="2.6" fill="#2563eb"/>
<circle cx="901.8" cy="137" r="2.6" fill="#2563eb"/>
<circle cx="904.8" cy="137" r="2.6" fill="#2563eb"/>
<circle cx="906.1" cy="137" r="2.6" fill="#2563eb"/>
<circle cx="911.5" cy="137" r="2.6" fill="#2563eb"/>
<circle cx="913.2" cy="137" r="2.6" fill="#2563eb"/>
<circle cx="914.9" cy="137" r="2.6" fill="#2563eb"/>
<circle cx="915.2" cy="137" r="2.6" fill="#2563eb"/>
<circle cx="916.8" cy="137" r="2.6" fill="#2563eb"/>
<circle cx="917.7" cy="137" r="2.6" fill="#2563eb"/>
<circle cx="926.6" cy="137" r="2.6" fill="#2563eb"/>
<circle cx="928.5" cy="137" r="2.6" fill="#2563eb"/>
<circle cx="929.1" cy="137" r="2.6" fill="#2563eb"/>
<circle cx="931.1" cy="137" r="2.6" fill="#2563eb"/>
<circle cx="932.8" cy="137" r="2.6" fill="#2563eb"/>
<circle cx="936.5" cy="137" r="2.6" fill="#2563eb"/>
<circle cx="939.8" cy="137" r="2.6" fill="#2563eb"/>
<circle cx="940.0" cy="137" r="2.6" fill="#2563eb"/>
<text x="12" y="141" font-size="12" font-weight="normal">kimi-code (44)</text>
<line x1="884.8" y1="165" x2="926.8" y2="165" stroke="#9aa4b2" stroke-width="5" stroke-linecap="round"/>
<circle cx="884.8" cy="165" r="2.6" fill="#2563eb"/>
<circle cx="900.6" cy="165" r="2.6" fill="#2563eb"/>
<circle cx="902.6" cy="165" r="2.6" fill="#2563eb"/>
<circle cx="912.0" cy="165" r="2.6" fill="#2563eb"/>
<circle cx="926.8" cy="165" r="2.6" fill="#2563eb"/>
<text x="12" y="169" font-size="12" font-weight="normal">mimo (5)</text>
<line x1="627.6" y1="193" x2="938.8" y2="193" stroke="#9aa4b2" stroke-width="5" stroke-linecap="round"/>
<circle cx="627.6" cy="193" r="2.6" fill="#2563eb"/>
<circle cx="630.1" cy="193" r="2.6" fill="#2563eb"/>
<circle cx="633.8" cy="193" r="2.6" fill="#2563eb"/>
<circle cx="636.7" cy="193" r="2.6" fill="#2563eb"/>
<circle cx="638.7" cy="193" r="2.6" fill="#2563eb"/>
<circle cx="642.5" cy="193" r="2.6" fill="#2563eb"/>
<circle cx="647.6" cy="193" r="2.6" fill="#2563eb"/>
<circle cx="653.8" cy="193" r="2.6" fill="#2563eb"/>
<circle cx="655.8" cy="193" r="2.6" fill="#2563eb"/>
<circle cx="657.7" cy="193" r="2.6" fill="#2563eb"/>
<circle cx="659.7" cy="193" r="2.6" fill="#2563eb"/>
<circle cx="663.4" cy="193" r="2.6" fill="#2563eb"/>
<circle cx="666.3" cy="193" r="2.6" fill="#2563eb"/>
<circle cx="670.1" cy="193" r="2.6" fill="#2563eb"/>
<circle cx="672.6" cy="193" r="2.6" fill="#2563eb"/>
<circle cx="674.9" cy="193" r="2.6" fill="#2563eb"/>
<circle cx="676.6" cy="193" r="2.6" fill="#2563eb"/>
<circle cx="678.6" cy="193" r="2.6" fill="#2563eb"/>
<circle cx="680.2" cy="193" r="2.6" fill="#2563eb"/>
<circle cx="686.2" cy="193" r="2.6" fill="#2563eb"/>
<circle cx="688.1" cy="193" r="2.6" fill="#2563eb"/>
<circle cx="697.6" cy="193" r="2.6" fill="#2563eb"/>
<circle cx="699.7" cy="193" r="2.6" fill="#2563eb"/>
<circle cx="705.1" cy="193" r="2.6" fill="#2563eb"/>
<circle cx="707.0" cy="193" r="2.6" fill="#2563eb"/>
<circle cx="709.0" cy="193" r="2.6" fill="#2563eb"/>
<circle cx="726.4" cy="193" r="2.6" fill="#2563eb"/>
<circle cx="727.4" cy="193" r="2.6" fill="#2563eb"/>
<circle cx="730.7" cy="193" r="2.6" fill="#2563eb"/>
<circle cx="737.1" cy="193" r="2.6" fill="#2563eb"/>
<circle cx="742.4" cy="193" r="2.6" fill="#2563eb"/>
<circle cx="744.0" cy="193" r="2.6" fill="#2563eb"/>
<circle cx="746.0" cy="193" r="2.6" fill="#2563eb"/>
<circle cx="756.0" cy="193" r="2.6" fill="#2563eb"/>
<circle cx="756.2" cy="193" r="2.6" fill="#2563eb"/>
<circle cx="757.9" cy="193" r="2.6" fill="#2563eb"/>
<circle cx="761.8" cy="193" r="2.6" fill="#2563eb"/>
<circle cx="763.4" cy="193" r="2.6" fill="#2563eb"/>
<circle cx="766.3" cy="193" r="2.6" fill="#2563eb"/>
<circle cx="768.2" cy="193" r="2.6" fill="#2563eb"/>
<circle cx="772.7" cy="193" r="2.6" fill="#2563eb"/>
<circle cx="782.0" cy="193" r="2.6" fill="#2563eb"/>
<circle cx="782.5" cy="193" r="2.6" fill="#2563eb"/>
<circle cx="785.3" cy="193" r="2.6" fill="#2563eb"/>
<circle cx="787.4" cy="193" r="2.6" fill="#2563eb"/>
<circle cx="797.3" cy="193" r="2.6" fill="#2563eb"/>
<circle cx="803.1" cy="193" r="2.6" fill="#2563eb"/>
<circle cx="805.6" cy="193" r="2.6" fill="#2563eb"/>
<circle cx="807.5" cy="193" r="2.6" fill="#2563eb"/>
<circle cx="809.5" cy="193" r="2.6" fill="#2563eb"/>
<circle cx="810.2" cy="193" r="2.6" fill="#2563eb"/>
<circle cx="812.3" cy="193" r="2.6" fill="#2563eb"/>
<circle cx="825.4" cy="193" r="2.6" fill="#2563eb"/>
<circle cx="833.0" cy="193" r="2.6" fill="#2563eb"/>
<circle cx="836.9" cy="193" r="2.6" fill="#2563eb"/>
<circle cx="838.8" cy="193" r="2.6" fill="#2563eb"/>
<circle cx="843.1" cy="193" r="2.6" fill="#2563eb"/>
<circle cx="849.5" cy="193" r="2.6" fill="#2563eb"/>
<circle cx="851.3" cy="193" r="2.6" fill="#2563eb"/>
<circle cx="855.8" cy="193" r="2.6" fill="#2563eb"/>
<circle cx="863.3" cy="193" r="2.6" fill="#2563eb"/>
<circle cx="874.5" cy="193" r="2.6" fill="#2563eb"/>
<circle cx="879.6" cy="193" r="2.6" fill="#2563eb"/>
<circle cx="887.6" cy="193" r="2.6" fill="#2563eb"/>
<circle cx="895.9" cy="193" r="2.6" fill="#2563eb"/>
<circle cx="901.7" cy="193" r="2.6" fill="#2563eb"/>
<circle cx="914.1" cy="193" r="2.6" fill="#2563eb"/>
<circle cx="938.8" cy="193" r="2.6" fill="#2563eb"/>
<text x="12" y="197" font-size="12" font-weight="normal">openclaw (68)</text>
<line x1="727.9" y1="221" x2="928.2" y2="221" stroke="#9aa4b2" stroke-width="5" stroke-linecap="round"/>
<circle cx="727.9" cy="221" r="2.6" fill="#2563eb"/>
<circle cx="736.6" cy="221" r="2.6" fill="#2563eb"/>
<circle cx="740.0" cy="221" r="2.6" fill="#2563eb"/>
<circle cx="747.8" cy="221" r="2.6" fill="#2563eb"/>
<circle cx="756.8" cy="221" r="2.6" fill="#2563eb"/>
<circle cx="766.8" cy="221" r="2.6" fill="#2563eb"/>
<circle cx="772.5" cy="221" r="2.6" fill="#2563eb"/>
<circle cx="786.0" cy="221" r="2.6" fill="#2563eb"/>
<circle cx="798.9" cy="221" r="2.6" fill="#2563eb"/>
<circle cx="812.0" cy="221" r="2.6" fill="#2563eb"/>
<circle cx="828.5" cy="221" r="2.6" fill="#2563eb"/>
<circle cx="851.8" cy="221" r="2.6" fill="#2563eb"/>
<circle cx="852.4" cy="221" r="2.6" fill="#2563eb"/>
<circle cx="853.4" cy="221" r="2.6" fill="#2563eb"/>
<circle cx="867.5" cy="221" r="2.6" fill="#2563eb"/>
<circle cx="893.5" cy="221" r="2.6" fill="#2563eb"/>
<circle cx="916.3" cy="221" r="2.6" fill="#2563eb"/>
<circle cx="928.0" cy="221" r="2.6" fill="#2563eb"/>
<circle cx="928.2" cy="221" r="2.6" fill="#2563eb"/>
<text x="12" y="225" font-size="12" font-weight="normal">hermes (19)</text>
<line x1="621.8" y1="249" x2="898.7" y2="249" stroke="#9aa4b2" stroke-width="5" stroke-linecap="round"/>
<circle cx="621.8" cy="249" r="2.6" fill="#2563eb"/>
<circle cx="621.9" cy="249" r="2.6" fill="#2563eb"/>
<circle cx="622.8" cy="249" r="2.6" fill="#2563eb"/>
<circle cx="624.0" cy="249" r="2.6" fill="#2563eb"/>
<circle cx="628.1" cy="249" r="2.6" fill="#2563eb"/>
<circle cx="634.2" cy="249" r="2.6" fill="#2563eb"/>
<circle cx="770.1" cy="249" r="2.6" fill="#2563eb"/>
<circle cx="774.0" cy="249" r="2.6" fill="#2563eb"/>
<circle cx="779.8" cy="249" r="2.6" fill="#2563eb"/>
<circle cx="783.6" cy="249" r="2.6" fill="#2563eb"/>
<circle cx="786.6" cy="249" r="2.6" fill="#2563eb"/>
<circle cx="794.7" cy="249" r="2.6" fill="#2563eb"/>
<circle cx="798.5" cy="249" r="2.6" fill="#2563eb"/>
<circle cx="818.6" cy="249" r="2.6" fill="#2563eb"/>
<circle cx="821.2" cy="249" r="2.6" fill="#2563eb"/>
<circle cx="824.4" cy="249" r="2.6" fill="#2563eb"/>
<circle cx="848.8" cy="249" r="2.6" fill="#2563eb"/>
<circle cx="852.7" cy="249" r="2.6" fill="#2563eb"/>
<circle cx="866.4" cy="249" r="2.6" fill="#2563eb"/>
<circle cx="898.7" cy="249" r="2.6" fill="#2563eb"/>
<text x="12" y="253" font-size="12" font-weight="normal">kimi (20)</text>
<line x1="755.9" y1="277" x2="939.1" y2="277" stroke="#9aa4b2" stroke-width="5" stroke-linecap="round"/>
<circle cx="755.9" cy="277" r="2.6" fill="#2563eb"/>
<circle cx="758.3" cy="277" r="2.6" fill="#2563eb"/>
<circle cx="759.0" cy="277" r="2.6" fill="#2563eb"/>
<circle cx="759.7" cy="277" r="2.6" fill="#2563eb"/>
<circle cx="769.1" cy="277" r="2.6" fill="#2563eb"/>
<circle cx="769.4" cy="277" r="2.6" fill="#2563eb"/>
<circle cx="769.6" cy="277" r="2.6" fill="#2563eb"/>
<circle cx="772.7" cy="277" r="2.6" fill="#2563eb"/>
<circle cx="773.9" cy="277" r="2.6" fill="#2563eb"/>
<circle cx="774.1" cy="277" r="2.6" fill="#2563eb"/>
<circle cx="774.4" cy="277" r="2.6" fill="#2563eb"/>
<circle cx="774.8" cy="277" r="2.6" fill="#2563eb"/>
<circle cx="776.0" cy="277" r="2.6" fill="#2563eb"/>
<circle cx="776.5" cy="277" r="2.6" fill="#2563eb"/>
<circle cx="776.7" cy="277" r="2.6" fill="#2563eb"/>
<circle cx="776.9" cy="277" r="2.6" fill="#2563eb"/>
<circle cx="777.4" cy="277" r="2.6" fill="#2563eb"/>
<circle cx="779.1" cy="277" r="2.6" fill="#2563eb"/>
<circle cx="781.9" cy="277" r="2.6" fill="#2563eb"/>
<circle cx="784.6" cy="277" r="2.6" fill="#2563eb"/>
<circle cx="785.4" cy="277" r="2.6" fill="#2563eb"/>
<circle cx="787.1" cy="277" r="2.6" fill="#2563eb"/>
<circle cx="787.3" cy="277" r="2.6" fill="#2563eb"/>
<circle cx="789.1" cy="277" r="2.6" fill="#2563eb"/>
<circle cx="791.5" cy="277" r="2.6" fill="#2563eb"/>
<circle cx="791.9" cy="277" r="2.6" fill="#2563eb"/>
<circle cx="792.1" cy="277" r="2.6" fill="#2563eb"/>
<circle cx="795.1" cy="277" r="2.6" fill="#2563eb"/>
<circle cx="797.4" cy="277" r="2.6" fill="#2563eb"/>
<circle cx="799.8" cy="277" r="2.6" fill="#2563eb"/>
<circle cx="802.4" cy="277" r="2.6" fill="#2563eb"/>
<circle cx="802.8" cy="277" r="2.6" fill="#2563eb"/>
<circle cx="806.8" cy="277" r="2.6" fill="#2563eb"/>
<circle cx="807.0" cy="277" r="2.6" fill="#2563eb"/>
<circle cx="807.4" cy="277" r="2.6" fill="#2563eb"/>
<circle cx="807.5" cy="277" r="2.6" fill="#2563eb"/>
<circle cx="807.7" cy="277" r="2.6" fill="#2563eb"/>
<circle cx="807.7" cy="277" r="2.6" fill="#2563eb"/>
<circle cx="810.7" cy="277" r="2.6" fill="#2563eb"/>
<circle cx="811.8" cy="277" r="2.6" fill="#2563eb"/>
<circle cx="815.8" cy="277" r="2.6" fill="#2563eb"/>
<circle cx="815.9" cy="277" r="2.6" fill="#2563eb"/>
<circle cx="816.0" cy="277" r="2.6" fill="#2563eb"/>
<circle cx="816.3" cy="277" r="2.6" fill="#2563eb"/>
<circle cx="816.5" cy="277" r="2.6" fill="#2563eb"/>
<circle cx="818.3" cy="277" r="2.6" fill="#2563eb"/>
<circle cx="818.4" cy="277" r="2.6" fill="#2563eb"/>
<circle cx="823.8" cy="277" r="2.6" fill="#2563eb"/>
<circle cx="824.1" cy="277" r="2.6" fill="#2563eb"/>
<circle cx="825.8" cy="277" r="2.6" fill="#2563eb"/>
<circle cx="826.1" cy="277" r="2.6" fill="#2563eb"/>
<circle cx="828.0" cy="277" r="2.6" fill="#2563eb"/>
<circle cx="828.7" cy="277" r="2.6" fill="#2563eb"/>
<circle cx="828.8" cy="277" r="2.6" fill="#2563eb"/>
<circle cx="831.0" cy="277" r="2.6" fill="#2563eb"/>
<circle cx="833.1" cy="277" r="2.6" fill="#2563eb"/>
<circle cx="837.0" cy="277" r="2.6" fill="#2563eb"/>
<circle cx="838.4" cy="277" r="2.6" fill="#2563eb"/>
<circle cx="840.6" cy="277" r="2.6" fill="#2563eb"/>
<circle cx="840.7" cy="277" r="2.6" fill="#2563eb"/>
<circle cx="841.0" cy="277" r="2.6" fill="#2563eb"/>
<circle cx="848.8" cy="277" r="2.6" fill="#2563eb"/>
<circle cx="851.9" cy="277" r="2.6" fill="#2563eb"/>
<circle cx="856.0" cy="277" r="2.6" fill="#2563eb"/>
<circle cx="865.8" cy="277" r="2.6" fill="#2563eb"/>
<circle cx="866.8" cy="277" r="2.6" fill="#2563eb"/>
<circle cx="875.2" cy="277" r="2.6" fill="#2563eb"/>
<circle cx="875.9" cy="277" r="2.6" fill="#2563eb"/>
<circle cx="876.4" cy="277" r="2.6" fill="#2563eb"/>
<circle cx="878.9" cy="277" r="2.6" fill="#2563eb"/>
<circle cx="882.2" cy="277" r="2.6" fill="#2563eb"/>
<circle cx="882.4" cy="277" r="2.6" fill="#2563eb"/>
<circle cx="884.0" cy="277" r="2.6" fill="#2563eb"/>
<circle cx="889.9" cy="277" r="2.6" fill="#2563eb"/>
<circle cx="895.8" cy="277" r="2.6" fill="#2563eb"/>
<circle cx="903.1" cy="277" r="2.6" fill="#2563eb"/>
<circle cx="904.3" cy="277" r="2.6" fill="#2563eb"/>
<circle cx="914.4" cy="277" r="2.6" fill="#2563eb"/>
<circle cx="915.9" cy="277" r="2.6" fill="#2563eb"/>
<circle cx="927.3" cy="277" r="2.6" fill="#2563eb"/>
<circle cx="930.3" cy="277" r="2.6" fill="#2563eb"/>
<circle cx="931.0" cy="277" r="2.6" fill="#2563eb"/>
<circle cx="931.3" cy="277" r="2.6" fill="#2563eb"/>
<circle cx="938.7" cy="277" r="2.6" fill="#2563eb"/>
<circle cx="939.1" cy="277" r="2.6" fill="#2563eb"/>
<text x="12" y="281" font-size="12" font-weight="normal">opencode (85)</text>
<line x1="811.9" y1="305" x2="931.7" y2="305" stroke="#9aa4b2" stroke-width="5" stroke-linecap="round"/>
<circle cx="811.9" cy="305" r="2.6" fill="#2563eb"/>
<circle cx="829.5" cy="305" r="2.6" fill="#2563eb"/>
<circle cx="831.1" cy="305" r="2.6" fill="#2563eb"/>
<circle cx="831.5" cy="305" r="2.6" fill="#2563eb"/>
<circle cx="832.2" cy="305" r="2.6" fill="#2563eb"/>
<circle cx="832.3" cy="305" r="2.6" fill="#2563eb"/>
<circle cx="836.4" cy="305" r="2.6" fill="#2563eb"/>
<circle cx="838.9" cy="305" r="2.6" fill="#2563eb"/>
<circle cx="841.7" cy="305" r="2.6" fill="#2563eb"/>
<circle cx="850.1" cy="305" r="2.6" fill="#2563eb"/>
<circle cx="852.2" cy="305" r="2.6" fill="#2563eb"/>
<circle cx="854.2" cy="305" r="2.6" fill="#2563eb"/>
<circle cx="864.9" cy="305" r="2.6" fill="#2563eb"/>
<circle cx="872.4" cy="305" r="2.6" fill="#2563eb"/>
<circle cx="874.8" cy="305" r="2.6" fill="#2563eb"/>
<circle cx="880.5" cy="305" r="2.6" fill="#2563eb"/>
<circle cx="881.4" cy="305" r="2.6" fill="#2563eb"/>
<circle cx="885.1" cy="305" r="2.6" fill="#2563eb"/>
<circle cx="887.8" cy="305" r="2.6" fill="#2563eb"/>
<circle cx="888.1" cy="305" r="2.6" fill="#2563eb"/>
<circle cx="891.4" cy="305" r="2.6" fill="#2563eb"/>
<circle cx="892.6" cy="305" r="2.6" fill="#2563eb"/>
<circle cx="895.5" cy="305" r="2.6" fill="#2563eb"/>
<circle cx="898.4" cy="305" r="2.6" fill="#2563eb"/>
<circle cx="901.0" cy="305" r="2.6" fill="#2563eb"/>
<circle cx="901.3" cy="305" r="2.6" fill="#2563eb"/>
<circle cx="914.4" cy="305" r="2.6" fill="#2563eb"/>
<circle cx="931.3" cy="305" r="2.6" fill="#2563eb"/>
<circle cx="931.7" cy="305" r="2.6" fill="#2563eb"/>
<text x="12" y="309" font-size="12" font-weight="normal">pi (29)</text>
<line x1="918.4" y1="333" x2="939.3" y2="333" stroke="#9aa4b2" stroke-width="5" stroke-linecap="round"/>
<circle cx="918.4" cy="333" r="2.6" fill="#2563eb"/>
<circle cx="918.9" cy="333" r="2.6" fill="#2563eb"/>
<circle cx="920.7" cy="333" r="2.6" fill="#2563eb"/>
<circle cx="925.4" cy="333" r="2.6" fill="#2563eb"/>
<circle cx="929.4" cy="333" r="2.6" fill="#2563eb"/>
<circle cx="931.3" cy="333" r="2.6" fill="#2563eb"/>
<circle cx="931.3" cy="333" r="2.6" fill="#2563eb"/>
<circle cx="931.5" cy="333" r="2.6" fill="#2563eb"/>
<circle cx="932.7" cy="333" r="2.6" fill="#2563eb"/>
<circle cx="933.2" cy="333" r="2.6" fill="#2563eb"/>
<circle cx="933.5" cy="333" r="2.6" fill="#2563eb"/>
<circle cx="934.2" cy="333" r="2.6" fill="#2563eb"/>
<circle cx="934.5" cy="333" r="2.6" fill="#2563eb"/>
<circle cx="935.0" cy="333" r="2.6" fill="#2563eb"/>
<circle cx="935.6" cy="333" r="2.6" fill="#2563eb"/>
<circle cx="937.0" cy="333" r="2.6" fill="#2563eb"/>
<circle cx="939.3" cy="333" r="2.6" fill="#2563eb"/>
<text x="12" y="337" font-size="12" font-weight="normal">omp (17)</text>
<text x="150" y="402" font-size="11" font-weight="normal">2025-05-22</text>
<text x="860" y="402" font-size="11" font-weight="normal">2026-07-14</text>
</svg>
